<svg viewBox="0 0 1024 1024" focusable="false" xmlns="http://www.w3.org/2000/svg"><path d="M566.05 363.23h.12v567.95h-.12zM699.3 495.37h101.38v49.56H699.3zm0 150.88h101.38v49.56H699.3zm-81.4-231.14v514.42h.11V415.1h-.12zM245.83 931.18h155.12-155.12zm0 0" /><path d="M964.65 392.17c0-16-12.96-28.96-28.96-28.96H618.02V69.91c0-15.99-12.96-28.95-28.93-28.95H88.3c-16 0-28.94 12.96-28.94 28.96v884.16a28.92 28.92 0 0028.94 28.96h847.36c16 0 28.96-12.96 28.96-28.96l.02-561.9zM566.17 931.18H111.23V92.82h454.92v838.36zm346.6-1.78H617.9V415.1h294.87V929.4z" /><path d="M199.6 193.62h101.37v49.56H199.6zm176.92 0H477.9v49.56H376.52zM199.6 344.37h101.37v49.56H199.6zm176.92 0H477.9v49.56H376.52zm-176.8 151.47H301.1v49.56H199.72zm176.8-.35H477.9v49.56H376.52zm-88.45 225.92h101.38a30.7 30.7 0 0130.7 30.7v179.05H257.37V752.11a30.7 30.7 0 0130.7-30.7z" /></svg>